<svg xmlns="http://www.w3.org/2000/svg" xmlns:xlink="http://www.w3.org/1999/xlink" viewBox="0 0 594.13 671"><defs><style>.cls-1{fill:none;}.cls-2{fill:#1b1b1b;}.cls-3{clip-path:url(#clip-path);}.cls-4{fill:url(#Degradado_sin_nombre_13);}</style><clipPath id="clip-path"><path class="cls-1" d="M249.65,34.29A906.59,906.59,0,0,0,130.51,143.7c9.94,19.29,14.79,28.84,24.32,47.81a3.81,3.81,0,0,1,.37.61c20.88,41.82,41.41,83.8,62,125.77C225,333.84,235,343.24,244,343.14c8-.08,16.85-7.53,24.48-20.53,7.17,14.16,10.76,21.24,18,35.41-11.84,14.34-26.94,20.78-43,21h0c-27.36.09-48.22-20.85-58.82-44.42-26-53.94-52-107.83-78.75-161.39q-8.16,10.26-16.13,20.94c-17.94,27.84-17.93,67,0,94.82A870.07,870.07,0,0,0,249.65,448.89c27.85,17.94,67,17.94,94.82,0A869.5,869.5,0,0,0,504.37,289c17.93-27.87,17.93-67,0-94.82-5.32-7.14-10.69-14.1-16.14-21-26.76,53.57-52.79,107.48-78.77,161.43-10.63,23.56-31.47,44.48-58.84,44.39h0C327.09,378,307.52,362.84,296,343a.91.91,0,0,0-.09.17c-7.61-14.86-11.37-22.27-18.89-37.11,0,0,0-.05,0-.07-1.66-3.35-2.5-5-4.17-8.36a3.85,3.85,0,0,1-.48-.69l-3.56-7q-17.94-36-35.91-72a76.79,76.79,0,0,1-11-38.88c0-.39,0-.78,0-1.16.27-41,34.61-73.28,75.14-73.29,41.08,0,75.54,32.89,75.14,74.45,0,.36,0,.7,0,1.06A77.26,77.26,0,0,1,362,216.49q-18.63,35.69-37.19,71.39c-7.81-15.34-11.69-23-19.43-38.3,9.93-19.84,14.89-29.75,24.92-49.64.18-.34.37-.68.55-1a39.67,39.67,0,0,0,5.38-19.66c0-.26,0-.51,0-.77-.3-21.14-17.83-38.16-39.2-38.16a38.88,38.88,0,0,0-39.19,38.93c0,.28,0,.55,0,.83a39.37,39.37,0,0,0,5.89,19.71c.29.48.56,1,.8,1.43,7.87,15.64,11.75,23.44,19.56,39.06l-.18.09q16.16,31.91,32.38,63.8c0,.06-.05.09-.07.14,2.68,5.36,4,8,6.7,13.38.08.12.16.25.23.38,8,15.57,18.14,24.94,26.93,25,9,.1,19-9.28,26.82-25.23,28.55-58.24,57.11-116.47,86.66-174.21A903.92,903.92,0,0,0,344.47,34.29c-13.92-9-30.67-13.46-47.41-13.46s-33.48,4.48-47.41,13.46"/></clipPath><linearGradient id="Degradado_sin_nombre_13" x1="-244.35" y1="870.92" x2="-239.87" y2="870.92" gradientTransform="translate(24152.44 -85569.15) scale(98.53)" gradientUnits="userSpaceOnUse"><stop offset="0" stop-color="#8fff73"/><stop offset="1" stop-color="#8ffff9"/></linearGradient></defs><title>Recurso 1</title><g id="Capa_2" data-name="Capa 2"><g id="Capa_1-2" data-name="Capa 1"><path class="cls-2" d="M85.49,547.53a6.61,6.61,0,0,1,2.88-3.41,8.5,8.5,0,0,1,4.49-1.33,7.59,7.59,0,0,1,6,2.51,8,8,0,0,1,2.22,5.4,6.94,6.94,0,0,1-.77,3.15,14.18,14.18,0,0,0-1.19,3c-.63,1.86-1.71,4.86-3.29,9s-3.67,9.63-6.23,16.51-5.73,15.46-9.61,25.83l12.13,33,35.62-93.67a6.58,6.58,0,0,1,2.91-3.41,8.36,8.36,0,0,1,4.48-1.33A7.51,7.51,0,0,1,141,545.3a8,8,0,0,1,2.25,5.4,6.84,6.84,0,0,1-.79,3.15c-.18.38-.84,2.17-2,5.43s-3.27,9-6.35,17.28S126.86,596,121.48,610.2s-12.26,32.16-20.7,53.94a12,12,0,0,1-3,4.74,7.91,7.91,0,0,1-5.68,1.86,8.08,8.08,0,0,1-5.93-2.26,12.78,12.78,0,0,1-3-4.34c-2.29-6.18-4.39-12.1-6.33-17.82s-3.77-11-5.54-15.94q-2.9,7.38-5.93,15.94C63.27,652,61,658,58.58,664.14a11.89,11.89,0,0,1-3,4.74,7.87,7.87,0,0,1-5.67,1.86,8,8,0,0,1-5.93-2.26,12.78,12.78,0,0,1-3-4.34q-11.08-30.35-18.73-51.31T9.76,579.05Q5,566.29,2.91,560.47C1.5,556.61.8,554.57.8,554.39A8,8,0,0,1,0,550.7,8.32,8.32,0,0,1,2,545a7.22,7.22,0,0,1,5.68-2.23,9.36,9.36,0,0,1,5,1.33,6.71,6.71,0,0,1,2.91,3.41L49.86,641.2,62.53,608q-5.3-14.26-9-24.4t-6.09-16.48c-1.56-4.25-2.71-7.34-3.41-9.37A28,28,0,0,1,43,554.39a8,8,0,0,1-.79-3.69,8.23,8.23,0,0,1,2-5.68,7.12,7.12,0,0,1,5.66-2.23,9.36,9.36,0,0,1,5,1.33,6.6,6.6,0,0,1,2.9,3.41L71.23,585.8Z"/><path class="cls-2" d="M276.76,646.72a83.49,83.49,0,0,1-21,16.76,52.86,52.86,0,0,1-26.53,7,63.8,63.8,0,0,1-44.83-17.94,62,62,0,0,1-13.74-20,63.45,63.45,0,0,1-5-25.34,64.39,64.39,0,0,1,4.87-24.91A63.5,63.5,0,0,1,184,561.78a62.72,62.72,0,0,1,20.3-13.71,64.1,64.1,0,0,1,25.46-5,58.31,58.31,0,0,1,24.14,5.16,67.18,67.18,0,0,1,20.19,13.86,66.21,66.21,0,0,1,13.83,20.33,60,60,0,0,1,5.17,24.77V662.8a8.18,8.18,0,1,1-16.35,0Zm0-39.57a46.74,46.74,0,0,0-3.71-18.45,47.71,47.71,0,0,0-10.16-15.19,47.73,47.73,0,0,0-33.64-13.84,45.62,45.62,0,0,0-18.32,3.71,47.09,47.09,0,0,0-25.19,25.32A46.39,46.39,0,0,0,182,607.15a45.46,45.46,0,0,0,3.71,18.32,47.58,47.58,0,0,0,25.19,25.2,47.18,47.18,0,0,0,36.27.15A47.63,47.63,0,0,0,272.39,626a52.9,52.9,0,0,0,4.37-18.86"/><path class="cls-2" d="M389.94,543.31a53.81,53.81,0,0,1,19,3.19,68.64,68.64,0,0,1,14.51,7.25,41.7,41.7,0,0,1,9.36,8.16c2.2,2.73,3.29,4.8,3.29,6.19a6.47,6.47,0,0,1-2.37,5,7.72,7.72,0,0,1-5.26,2.09,8,8,0,0,1-5.82-2.37,54.83,54.83,0,0,0-15-9.35,46.42,46.42,0,0,0-18.21-3.57,45.71,45.71,0,0,0-18.33,3.71,46.93,46.93,0,0,0-15,10.15,47.35,47.35,0,0,0-13.85,33.62,46,46,0,0,0,3.68,18.34,47.85,47.85,0,0,0,25.2,25.19,45.52,45.52,0,0,0,18.33,3.69,46.24,46.24,0,0,0,18.21-3.55,49.45,49.45,0,0,0,15-9.88,7.83,7.83,0,0,1,5.82-2.39,8.31,8.31,0,0,1,5.66,2.23,7.34,7.34,0,0,1,2.52,5.68c0,1.43-1,3.49-3.06,6.2a35.27,35.27,0,0,1-9.08,8.07,64.35,64.35,0,0,1-35.1,9.75A63.54,63.54,0,0,1,364.72,666a64.22,64.22,0,0,1-20.18-13.17,61.36,61.36,0,0,1-13.71-20.07,63.3,63.3,0,0,1-5-25.32,62.77,62.77,0,0,1,18.34-44.71A65.74,65.74,0,0,1,364.47,549a69.68,69.68,0,0,1,25.47-5.68"/><path class="cls-2" d="M530.8,543a58.44,58.44,0,0,1,24.14,5.16,67,67,0,0,1,20.18,13.86A66.09,66.09,0,0,1,589,582.38a61.92,61.92,0,0,1,.14,49.17,66.76,66.76,0,0,1-13.59,20.19,62.92,62.92,0,0,1-45.23,18.74,63.94,63.94,0,0,1-44.87-17.94,62.07,62.07,0,0,1-13.71-20,63.28,63.28,0,0,1-5-25.34,62.19,62.19,0,0,1,4.87-24.66A63.07,63.07,0,0,1,485,562.42a66.11,66.11,0,0,1,20.3-13.71A70.49,70.49,0,0,1,530.8,543m-.51,16.64a45.77,45.77,0,0,0-18.35,3.71,47.31,47.31,0,0,0-15,10.13,47.93,47.93,0,0,0-10.18,15.19,47.07,47.07,0,0,0-3.68,18.45,46.12,46.12,0,0,0,3.68,18.32,47.8,47.8,0,0,0,25.21,25.2,45.76,45.76,0,0,0,18.35,3.7,46.73,46.73,0,0,0,18.47-3.7,47.35,47.35,0,0,0,25.31-25.2,45.61,45.61,0,0,0,3.69-18.32,46.55,46.55,0,0,0-3.69-18.45,47.87,47.87,0,0,0-10.16-15.19,47.68,47.68,0,0,0-33.62-13.84"/><path class="cls-2" d="M523.94,189.7q-2.61-3.49-5.23-6.91h0l-.07-.11c-4.09-5.4-8.21-10.68-12.37-15.9l-.22.43-26.73-32.76A993.08,993.08,0,0,0,349,14.72C333.71,4.9,315.39,0,297.06,0s-36.65,4.9-51.88,14.72a994.62,994.62,0,0,0-126,115l0,0-.19.22-4.16,4.53c0,.1.1.17.14.26L88,167a.93.93,0,0,1-.1-.2l-4.1,5.2,0,0h0Q76.9,180.75,70.2,189.7c-19.64,30.46-19.62,73.29,0,103.75a952.41,952.41,0,0,0,175,175c30.48,19.63,73.29,19.63,103.77,0a952.78,952.78,0,0,0,175-175C543.56,263,543.55,220.2,523.94,189.7Z"/><g class="cls-3"><rect class="cls-4" x="71.82" y="20.82" width="450.48" height="446.01"/></g></g></g></svg>